<svg width="27" height="30" viewBox="0 0 27 30" fill="none" xmlns="http://www.w3.org/2000/svg">
<path d="M4.40625 1.875C4.40625 0.837891 3.56836 0 2.53125 0C1.49414 0 0.65625 0.837891 0.65625 1.875V3.75V21.5625V28.125C0.65625 29.1621 1.49414 30 2.53125 30C3.56836 30 4.40625 29.1621 4.40625 28.125V20.625L8.17383 19.6816C10.582 19.0781 13.1309 19.3594 15.3516 20.4668C17.9414 21.7617 20.9473 21.9199 23.6543 20.9004L25.6875 20.1387C26.4199 19.8633 26.9062 19.166 26.9062 18.3809V3.87305C26.9062 2.52539 25.4883 1.64648 24.2812 2.25L23.7188 2.53125C21.0059 3.89062 17.8125 3.89062 15.0996 2.53125C13.043 1.5 10.6816 1.24219 8.44922 1.79883L4.40625 2.8125V1.875Z" fill="#D32F2F"/>
</svg>
