<svg width="27" height="30" viewBox="0 0 27 30" fill="none" xmlns="http://www.w3.org/2000/svg">
<path d="M13.125 6.5625C12.6094 6.5625 12.1875 6.14062 12.1875 5.625V4.6875C12.1875 2.09766 14.2852 0 16.875 0H17.8125C18.3281 0 18.75 0.421875 18.75 0.9375V1.875C18.75 4.46484 16.6523 6.5625 14.0625 6.5625H13.125ZM0 16.875C0 12.4043 2.0918 7.5 6.5625 7.5C8.16211 7.5 10.0605 8.10352 11.4082 8.63086C12.5098 9.05859 13.7461 9.05859 14.8477 8.63086C16.1895 8.10938 18.0938 7.5 19.6934 7.5C24.1641 7.5 26.2559 12.4043 26.2559 16.875C26.2559 24.375 21.5684 30 16.8809 30C15.9141 30 14.6484 29.6133 13.8633 29.3379C13.3887 29.1738 12.873 29.1738 12.3984 29.3379C11.6133 29.6133 10.3477 30 9.38086 30C4.6875 30 0 24.375 0 16.875Z" fill="#D32F2F"/>
</svg>
