<svg width="27" height="30" viewBox="0 0 27 30" fill="none" xmlns="http://www.w3.org/2000/svg">
<path d="M13.1249 0C12.0877 0 11.2499 0.837891 11.2499 1.875V3C6.97251 3.86719 3.74986 7.65234 3.74986 12.1875V13.2891C3.74986 16.043 2.73618 18.7031 0.908058 20.7656L0.474464 21.252C-0.0177231 21.8027 -0.134911 22.5938 0.163917 23.2676C0.462746 23.9414 1.13657 24.375 1.87485 24.375H24.3749C25.1131 24.375 25.7811 23.9414 26.0858 23.2676C26.3905 22.5938 26.2674 21.8027 25.7752 21.252L25.3417 20.7656C23.5135 18.7031 22.4999 16.0488 22.4999 13.2891V12.1875C22.4999 7.65234 19.2772 3.86719 14.9999 3V1.875C14.9999 0.837891 14.162 0 13.1249 0ZM15.7792 28.9043C16.4823 28.2012 16.8749 27.2461 16.8749 26.25H13.1249H9.37485C9.37485 27.2461 9.76743 28.2012 10.4706 28.9043C11.1737 29.6074 12.1288 30 13.1249 30C14.1209 30 15.076 29.6074 15.7792 28.9043Z" fill="#D32F2F"/>
</svg>
