<svg width="35" height="28" viewBox="0 0 35 28" fill="none" xmlns="http://www.w3.org/2000/svg">
<path d="M17.2036 0.875C12.4692 0.875 8.67822 3.03125 5.91846 5.59766C3.17627 8.14062 1.34229 11.1875 0.475098 13.2793C0.281738 13.7422 0.281738 14.2578 0.475098 14.7207C1.34229 16.8125 3.17627 19.8594 5.91846 22.4023C8.67822 24.9688 12.4692 27.125 17.2036 27.125C21.938 27.125 25.729 24.9688 28.4888 22.4023C31.231 19.8535 33.0649 16.8125 33.938 14.7207C34.1313 14.2578 34.1313 13.7422 33.938 13.2793C33.0649 11.1875 31.231 8.14062 28.4888 5.59766C25.729 3.03125 21.938 0.875 17.2036 0.875ZM8.76611 14C8.76611 11.7622 9.65506 9.61612 11.2374 8.03379C12.8197 6.45145 14.9658 5.5625 17.2036 5.5625C19.4414 5.5625 21.5875 6.45145 23.1698 8.03379C24.7522 9.61612 25.6411 11.7622 25.6411 14C25.6411 16.2378 24.7522 18.3839 23.1698 19.9662C21.5875 21.5486 19.4414 22.4375 17.2036 22.4375C14.9658 22.4375 12.8197 21.5486 11.2374 19.9662C9.65506 18.3839 8.76611 16.2378 8.76611 14ZM17.2036 10.25C17.2036 12.3184 15.522 14 13.4536 14C13.0376 14 12.6392 13.9297 12.2642 13.8066C11.9419 13.7012 11.5669 13.9004 11.5786 14.2402C11.5962 14.6445 11.6548 15.0488 11.7661 15.4531C12.5688 18.4531 15.6567 20.2344 18.6567 19.4316C21.6567 18.6289 23.438 15.541 22.6353 12.541C21.9849 10.1094 19.8345 8.47461 17.4438 8.375C17.104 8.36328 16.9048 8.73242 17.0103 9.06055C17.1333 9.43555 17.2036 9.83398 17.2036 10.25Z" fill="#D32F2F"/>
</svg>
